 <svg  version="1.0" xmlns="http://www.w3.org/2000/svg"  width="138.000000pt" height="138.000000pt" viewBox="0 0 138.000000 138.000000"  preserveAspectRatio="xMidYMid meet">  <g transform="translate(0.000000,138.000000) scale(0.100000,-0.100000)" fill="#ffffff" stroke="none"> <path d="M436 724 c-153 -267 -275 -488 -272 -491 3 -3 33 6 68 20 159 63 297 88 487 88 148 0 267 -17 386 -55 41 -13 77 -20 80 -16 6 9 -107 61 -206 96 -119 41 -245 64 -377 71 -67 3 -121 10 -120 14 12 33 234 406 239 401 14 -14 189 -324 189 -333 0 -5 -19 -9 -42 -10 -24 0 -63 -4 -88 -8 -38 -6 -41 -9 -20 -13 213 -49 294 -72 368 -108 65 -31 83 -36 77 -23 -8 21 -474 835 -484 845 -3 4 -132 -211 -285 -478z"/> </g> </svg> 