<?xml version="1.0" standalone="no"?>
<!DOCTYPE svg PUBLIC "-//W3C//DTD SVG 20010904//EN"
 "http://www.w3.org/TR/2001/REC-SVG-20010904/DTD/svg10.dtd">
<svg version="1.0" xmlns="http://www.w3.org/2000/svg"
 width="300.000000pt" height="76.000000pt" viewBox="0 0 300.000000 76.000000"
 preserveAspectRatio="xMidYMid meet">
<metadata>
Created by potrace 1.10, written by Peter Selinger 2001-2011
</metadata>
<g transform="translate(0.000000,76.000000) scale(0.100000,-0.100000)"
fill="#000000" stroke="none">
<path d="M237 388 c-103 -182 -187 -332 -185 -334 2 -1 43 10 91 26 170 58
384 61 546 10 35 -11 66 -19 68 -17 7 7 -136 67 -210 88 -39 11 -118 23 -175
26 -116 7 -115 4 -62 91 15 26 48 82 73 126 l45 78 42 -73 c84 -145 90 -156
90 -162 0 -4 -21 -7 -47 -7 -71 0 -85 -16 -21 -23 55 -7 193 -49 241 -73 15
-8 27 -12 27 -10 0 6 -320 569 -329 578 -3 3 -91 -143 -194 -324z"/>
<path d="M980 380 l0 -260 45 0 45 0 0 260 0 260 -45 0 -45 0 0 -260z"/>
<path d="M1380 600 l0 -40 215 0 215 0 0 40 0 40 -215 0 -215 0 0 -40z"/>
<path d="M2042 614 c-90 -45 -135 -123 -135 -234 0 -120 52 -201 156 -245 52
-22 57 -20 57 25 0 35 -4 41 -36 56 -20 9 -48 35 -62 57 -23 34 -27 52 -27
107 0 56 4 73 28 109 15 23 43 49 62 58 31 15 35 21 35 55 0 46 -8 47 -78 12z"/>
<path d="M2210 600 c0 -31 5 -42 23 -51 45 -23 78 -64 93 -116 14 -48 14 -58
0 -106 -15 -52 -48 -93 -93 -116 -18 -9 -23 -20 -23 -51 0 -22 5 -40 10 -40
25 0 110 52 135 82 94 111 86 284 -19 376 -33 29 -95 62 -117 62 -5 0 -9 -18
-9 -40z"/>
<path d="M2510 601 l0 -40 146 -3 c139 -3 147 -4 165 -27 28 -35 25 -92 -7
-122 -24 -23 -33 -24 -165 -27 l-139 -4 0 -129 0 -129 40 0 40 0 0 90 0 90 63
0 64 0 62 -90 62 -90 50 0 c27 0 49 2 49 5 0 3 -29 46 -65 96 -36 49 -65 91
-65 93 0 2 14 9 30 16 97 40 124 176 52 253 -46 49 -80 57 -238 57 l-144 0 0
-39z"/>
<path d="M1550 295 l0 -175 45 0 45 0 0 175 0 175 -45 0 -45 0 0 -175z"/>
</g>
</svg>
